<?xml version="1.0" encoding="UTF-8"?>
<svg width="48in" height="12in" viewBox="0 0 4800 1200"
     xmlns="http://www.w3.org/2000/svg"
     font-family="'Arial Black','Arial Bold',Arial,Helvetica,sans-serif">

  <!-- ── Background ─────────────────────────────────────── -->
  <rect width="4800" height="1200" fill="#FFFFFF"/>

  <!-- ── Top bar ────────────────────────────────────────── -->
  <rect x="0" y="0" width="4800" height="90" fill="#E8472A"/>

  <!-- ── Bottom bar ─────────────────────────────────────── -->
  <rect x="0" y="1110" width="4800" height="90" fill="#2B6CC4"/>

  <!-- ── "LET'S TALK" (red) ─────────────────────────────── -->
  <text x="120" y="518"
        font-size="390" font-weight="900"
        fill="#E8472A" letter-spacing="-6">LET&#x2019;S TALK</text>

  <!-- Rule under "LET'S TALK" -->
  <line x1="120" y1="538"
        x2="3666" y2="538"
        stroke="#E8472A" stroke-width="12"/>

  <!-- ── "MONEY &amp; TAXES" (blue) ────────────────────── -->
  <text x="120" y="865"
        font-size="390" font-weight="900"
        fill="#2B6CC4" letter-spacing="-6">MONEY &amp; TAXES</text>

  <!-- ── URL line (bottom-left, white on blue bar) ─────── -->
  <text x="120" y="1076"
        font-size="90" font-weight="700"
        font-family="'Courier New',Courier,monospace"
        fill="#E8472A">eastbaymoney.com/talk</text>

  <!-- ── Credential / CTA (bottom-left, second line) ───── -->
  <text x="120" y="976"
        font-size="72" font-weight="400"
        font-family="Arial,Helvetica,sans-serif"
        fill="#444444">Pete Dillon, CPA &#x2022; Scan to share what&#x2019;s on your mind</text>

  <!-- ── QR white box with blue border ─────────────────── -->
  <rect x="3786" y="153"
        width="894" height="894"
        fill="#FFFFFF" stroke="#2B6CC4" stroke-width="8" rx="8"/>

  <!-- ── QR code (blue modules) ────────────────────────── -->
  <g transform="translate(3818,185) scale(23.7143)">
    <path d="M1,1H2V2H1zM2,1H3V2H2zM3,1H4V2H3zM4,1H5V2H4zM5,1H6V2H5zM6,1H7V2H6zM7,1H8V2H7zM10,1H11V2H10zM11,1H12V2H11zM15,1H16V2H15zM17,1H18V2H17zM19,1H20V2H19zM21,1H22V2H21zM24,1H25V2H24zM25,1H26V2H25zM27,1H28V2H27zM28,1H29V2H28zM29,1H30V2H29zM30,1H31V2H30zM31,1H32V2H31zM32,1H33V2H32zM33,1H34V2H33zM1,2H2V3H1zM7,2H8V3H7zM10,2H11V3H10zM11,2H12V3H11zM12,2H13V3H12zM13,2H14V3H13zM15,2H16V3H15zM16,2H17V3H16zM20,2H21V3H20zM21,2H22V3H21zM24,2H25V3H24zM27,2H28V3H27zM33,2H34V3H33zM1,3H2V4H1zM3,3H4V4H3zM4,3H5V4H4zM5,3H6V4H5zM7,3H8V4H7zM10,3H11V4H10zM11,3H12V4H11zM12,3H13V4H12zM13,3H14V4H13zM14,3H15V4H14zM18,3H19V4H18zM20,3H21V4H20zM24,3H25V4H24zM27,3H28V4H27zM29,3H30V4H29zM30,3H31V4H30zM31,3H32V4H31zM33,3H34V4H33zM1,4H2V5H1zM3,4H4V5H3zM4,4H5V5H4zM5,4H6V5H5zM7,4H8V5H7zM10,4H11V5H10zM14,4H15V5H14zM15,4H16V5H15zM16,4H17V5H16zM18,4H19V5H18zM20,4H21V5H20zM21,4H22V5H21zM23,4H24V5H23zM24,4H25V5H24zM25,4H26V5H25zM27,4H28V5H27zM29,4H30V5H29zM30,4H31V5H30zM31,4H32V5H31zM33,4H34V5H33zM1,5H2V6H1zM3,5H4V6H3zM4,5H5V6H4zM5,5H6V6H5zM7,5H8V6H7zM9,5H10V6H9zM11,5H12V6H11zM13,5H14V6H13zM14,5H15V6H14zM16,5H17V6H16zM18,5H19V6H18zM21,5H22V6H21zM22,5H23V6H22zM24,5H25V6H24zM25,5H26V6H25zM27,5H28V6H27zM29,5H30V6H29zM30,5H31V6H30zM31,5H32V6H31zM33,5H34V6H33zM1,6H2V7H1zM7,6H8V7H7zM13,6H14V7H13zM15,6H16V7H15zM20,6H21V7H20zM21,6H22V7H21zM24,6H25V7H24zM27,6H28V7H27zM33,6H34V7H33zM1,7H2V8H1zM2,7H3V8H2zM3,7H4V8H3zM4,7H5V8H4zM5,7H6V8H5zM6,7H7V8H6zM7,7H8V8H7zM9,7H10V8H9zM11,7H12V8H11zM13,7H14V8H13zM15,7H16V8H15zM17,7H18V8H17zM19,7H20V8H19zM21,7H22V8H21zM23,7H24V8H23zM25,7H26V8H25zM27,7H28V8H27zM28,7H29V8H28zM29,7H30V8H29zM30,7H31V8H30zM31,7H32V8H31zM32,7H33V8H32zM33,7H34V8H33zM9,8H10V9H9zM10,8H11V9H10zM11,8H12V9H11zM12,8H13V9H12zM14,8H15V9H14zM18,8H19V9H18zM19,8H20V9H19zM20,8H21V9H20zM23,8H24V9H23zM25,8H26V9H25zM3,9H4V10H3zM4,9H5V10H4zM7,9H8V10H7zM8,9H9V10H8zM9,9H10V10H9zM10,9H11V10H10zM11,9H12V10H11zM12,9H13V10H12zM13,9H14V10H13zM15,9H16V10H15zM16,9H17V10H16zM19,9H20V10H19zM21,9H22V10H21zM22,9H23V10H22zM23,9H24V10H23zM24,9H25V10H24zM26,9H27V10H26zM27,9H28V10H27zM29,9H30V10H29zM1,10H2V11H1zM2,10H3V11H2zM3,10H4V11H3zM4,10H5V11H4zM6,10H7V11H6zM10,10H11V11H10zM12,10H13V11H12zM13,10H14V11H13zM14,10H15V11H14zM15,10H16V11H15zM16,10H17V11H16zM18,10H19V11H18zM22,10H23V11H22zM24,10H25V11H24zM26,10H27V11H26zM27,10H28V11H27zM30,10H31V11H30zM33,10H34V11H33zM1,11H2V12H1zM4,11H5V12H4zM7,11H8V12H7zM10,11H11V12H10zM11,11H12V12H11zM15,11H16V12H15zM16,11H17V12H16zM17,11H18V12H17zM24,11H25V12H24zM25,11H26V12H25zM26,11H27V12H26zM27,11H28V12H27zM30,11H31V12H30zM31,11H32V12H31zM32,11H33V12H32zM33,11H34V12H33zM1,12H2V13H1zM2,12H3V13H2zM3,12H4V13H3zM6,12H7V13H6zM8,12H9V13H8zM11,12H12V13H11zM12,12H13V13H12zM15,12H16V13H15zM16,12H17V13H16zM21,12H22V13H21zM24,12H25V13H24zM25,12H26V13H25zM26,12H27V13H26zM28,12H29V13H28zM29,12H30V13H29zM30,12H31V13H30zM3,13H4V14H3zM4,13H5V14H4zM6,13H7V14H6zM7,13H8V14H7zM9,13H10V14H9zM10,13H11V14H10zM15,13H16V14H15zM16,13H17V14H16zM19,13H20V14H19zM22,13H23V14H22zM24,13H25V14H24zM26,13H27V14H26zM28,13H29V14H28zM32,13H33V14H32zM1,14H2V15H1zM3,14H4V15H3zM5,14H6V15H5zM8,14H9V15H8zM11,14H12V15H11zM14,14H15V15H14zM15,14H16V15H15zM21,14H22V15H21zM22,14H23V15H22zM23,14H24V15H23zM25,14H26V15H25zM30,14H31V15H30zM2,15H3V16H2zM4,15H5V16H4zM5,15H6V16H5zM6,15H7V16H6zM7,15H8V16H7zM9,15H10V16H9zM10,15H11V16H10zM16,15H17V16H16zM17,15H18V16H17zM20,15H21V16H20zM22,15H23V16H22zM25,15H26V16H25zM27,15H28V16H27zM28,15H29V16H28zM30,15H31V16H30zM3,16H4V17H3zM10,16H11V17H10zM11,16H12V17H11zM13,16H14V17H13zM14,16H15V17H14zM17,16H18V17H17zM18,16H19V17H18zM21,16H22V17H21zM22,16H23V17H22zM23,16H24V17H23zM25,16H26V17H25zM27,16H28V17H27zM28,16H29V17H28zM29,16H30V17H29zM30,16H31V17H30zM31,16H32V17H31zM32,16H33V17H32zM1,17H2V18H1zM2,17H3V18H2zM3,17H4V18H3zM7,17H8V18H7zM9,17H10V18H9zM11,17H12V18H11zM13,17H14V18H13zM14,17H15V18H14zM17,17H18V18H17zM22,17H23V18H22zM24,17H25V18H24zM25,17H26V18H25zM26,17H27V18H26zM27,17H28V18H27zM29,17H30V18H29zM30,17H31V18H30zM31,17H32V18H31zM32,17H33V18H32zM3,18H4V19H3zM4,18H5V19H4zM8,18H9V19H8zM9,18H10V19H9zM10,18H11V19H10zM14,18H15V19H14zM15,18H16V19H15zM20,18H21V19H20zM21,18H22V19H21zM22,18H23V19H22zM23,18H24V19H23zM24,18H25V19H24zM26,18H27V19H26zM27,18H28V19H27zM29,18H30V19H29zM31,18H32V19H31zM32,18H33V19H32zM33,18H34V19H33zM1,19H2V20H1zM2,19H3V20H2zM3,19H4V20H3zM4,19H5V20H4zM5,19H6V20H5zM6,19H7V20H6zM7,19H8V20H7zM10,19H11V20H10zM15,19H16V20H15zM16,19H17V20H16zM17,19H18V20H17zM18,19H19V20H18zM20,19H21V20H20zM22,19H23V20H22zM23,19H24V20H23zM26,19H27V20H26zM27,19H28V20H27zM31,19H32V20H31zM32,19H33V20H32zM3,20H4V21H3zM4,20H5V21H4zM5,20H6V21H5zM9,20H10V21H9zM16,20H17V21H16zM19,20H20V21H19zM23,20H24V21H23zM29,20H30V21H29zM33,20H34V21H33zM2,21H3V22H2zM3,21H4V22H3zM7,21H8V22H7zM8,21H9V22H8zM11,21H12V22H11zM13,21H14V22H13zM14,21H15V22H14zM15,21H16V22H15zM17,21H18V22H17zM20,21H21V22H20zM22,21H23V22H22zM25,21H26V22H25zM27,21H28V22H27zM28,21H29V22H28zM30,21H31V22H30zM31,21H32V22H31zM1,22H2V23H1zM3,22H4V23H3zM11,22H12V23H11zM12,22H13V23H12zM13,22H14V23H13zM14,22H15V23H14zM15,22H16V23H15zM18,22H19V23H18zM19,22H20V23H19zM20,22H21V23H20zM21,22H22V23H21zM25,22H26V23H25zM31,22H32V23H31zM33,22H34V23H33zM3,23H4V24H3zM5,23H6V24H5zM6,23H7V24H6zM7,23H8V24H7zM9,23H10V24H9zM11,23H12V24H11zM12,23H13V24H12zM13,23H14V24H13zM15,23H16V24H15zM16,23H17V24H16zM18,23H19V24H18zM20,23H21V24H20zM22,23H23V24H22zM23,23H24V24H23zM24,23H25V24H24zM25,23H26V24H25zM27,23H28V24H27zM28,23H29V24H28zM29,23H30V24H29zM32,23H33V24H32zM33,23H34V24H33zM2,24H3V25H2zM3,24H4V25H3zM4,24H5V25H4zM6,24H7V25H6zM9,24H10V25H9zM11,24H12V25H11zM12,24H13V25H12zM15,24H16V25H15zM16,24H17V25H16zM17,24H18V25H17zM19,24H20V25H19zM21,24H22V25H21zM26,24H27V25H26zM29,24H30V25H29zM30,24H31V25H30zM33,24H34V25H33zM1,25H2V26H1zM3,25H4V26H3zM4,25H5V26H4zM6,25H7V26H6zM7,25H8V26H7zM9,25H10V26H9zM11,25H12V26H11zM12,25H13V26H12zM13,25H14V26H13zM14,25H15V26H14zM15,25H16V26H15zM16,25H17V26H16zM17,25H18V26H17zM18,25H19V26H18zM19,25H20V26H19zM20,25H21V26H20zM23,25H24V26H23zM25,25H26V26H25zM26,25H27V26H26zM27,25H28V26H27zM28,25H29V26H28zM29,25H30V26H29zM30,25H31V26H30zM32,25H33V26H32zM33,25H34V26H33zM9,26H10V27H9zM11,26H12V27H11zM14,26H15V27H14zM15,26H16V27H15zM18,26H19V27H18zM22,26H23V27H22zM23,26H24V27H23zM24,26H25V27H24zM25,26H26V27H25zM29,26H30V27H29zM1,27H2V28H1zM2,27H3V28H2zM3,27H4V28H3zM4,27H5V28H4zM5,27H6V28H5zM6,27H7V28H6zM7,27H8V28H7zM9,27H10V28H9zM10,27H11V28H10zM12,27H13V28H12zM15,27H16V28H15zM19,27H20V28H19zM20,27H21V28H20zM21,27H22V28H21zM22,27H23V28H22zM24,27H25V28H24zM25,27H26V28H25zM27,27H28V28H27zM29,27H30V28H29zM30,27H31V28H30zM1,28H2V29H1zM7,28H8V29H7zM11,28H12V29H11zM12,28H13V29H12zM13,28H14V29H13zM15,28H16V29H15zM18,28H19V29H18zM24,28H25V29H24zM25,28H26V29H25zM29,28H30V29H29zM30,28H31V29H30zM31,28H32V29H31zM32,28H33V29H32zM33,28H34V29H33zM1,29H2V30H1zM3,29H4V30H3zM4,29H5V30H4zM5,29H6V30H5zM7,29H8V30H7zM10,29H11V30H10zM11,29H12V30H11zM14,29H15V30H14zM15,29H16V30H15zM17,29H18V30H17zM18,29H19V30H18zM19,29H20V30H19zM20,29H21V30H20zM21,29H22V30H21zM23,29H24V30H23zM24,29H25V30H24zM25,29H26V30H25zM26,29H27V30H26zM27,29H28V30H27zM28,29H29V30H28zM29,29H30V30H29zM31,29H32V30H31zM32,29H33V30H32zM1,30H2V31H1zM3,30H4V31H3zM4,30H5V31H4zM5,30H6V31H5zM7,30H8V31H7zM9,30H10V31H9zM10,30H11V31H10zM12,30H13V31H12zM15,30H16V31H15zM18,30H19V31H18zM19,30H20V31H19zM21,30H22V31H21zM22,30H23V31H22zM23,30H24V31H23zM24,30H25V31H24zM25,30H26V31H25zM28,30H29V31H28zM30,30H31V31H30zM31,30H32V31H31zM1,31H2V32H1zM3,31H4V32H3zM4,31H5V32H4zM5,31H6V32H5zM7,31H8V32H7zM9,31H10V32H9zM10,31H11V32H10zM11,31H12V32H11zM14,31H15V32H14zM16,31H17V32H16zM17,31H18V32H17zM19,31H20V32H19zM25,31H26V32H25zM26,31H27V32H26zM27,31H28V32H27zM31,31H32V32H31zM1,32H2V33H1zM7,32H8V33H7zM15,32H16V33H15zM16,32H17V33H16zM17,32H18V33H17zM18,32H19V33H18zM19,32H20V33H19zM22,32H23V33H22zM24,32H25V33H24zM25,32H26V33H25zM27,32H28V33H27zM33,32H34V33H33zM1,33H2V34H1zM2,33H3V34H2zM3,33H4V34H3zM4,33H5V34H4zM5,33H6V34H5zM6,33H7V34H6zM7,33H8V34H7zM11,33H12V34H11zM12,33H13V34H12zM14,33H15V34H14zM21,33H22V34H21zM24,33H25V34H24zM26,33H27V34H26zM27,33H28V34H27zM28,33H29V34H28zM29,33H30V34H29zM31,33H32V34H31z" fill="#2B6CC4"/>
  </g>

  <!-- ── Print crop marks (hairlines, outside bleed) ──── -->
  <!-- top-left -->
  <line x1="0"  y1="20" x2="40" y2="20" stroke="#999" stroke-width="2"/>
  <line x1="20" y1="0"  x2="20" y2="40" stroke="#999" stroke-width="2"/>
  <!-- top-right -->
  <line x1="4800"    y1="20" x2="4760" y2="20" stroke="#999" stroke-width="2"/>
  <line x1="4780" y1="0"  x2="4780" y2="40" stroke="#999" stroke-width="2"/>
  <!-- bottom-left -->
  <line x1="0"  y1="1180" x2="40"    y2="1180" stroke="#999" stroke-width="2"/>
  <line x1="20" y1="1200"    x2="20"    y2="1160" stroke="#999" stroke-width="2"/>
  <!-- bottom-right -->
  <line x1="4800"    y1="1180" x2="4760" y2="1180" stroke="#999" stroke-width="2"/>
  <line x1="4780" y1="1200"    x2="4780" y2="1160" stroke="#999" stroke-width="2"/>

</svg>